<?xml version="1.0" encoding="utf-8"?>
<!-- Generator: Adobe Illustrator 19.0.0, SVG Export Plug-In . SVG Version: 6.00 Build 0)  -->
<svg version="1.1" id="Layer_1" xmlns="http://www.w3.org/2000/svg" xmlns:xlink="http://www.w3.org/1999/xlink" x="0px" y="0px"
	 viewBox="318 -22.5 371 77.5" style="enable-background:new 318 -22.5 371 77.5;" xml:space="preserve">
<style type="text/css">
	.st0{fill:#FFFFFF;}
</style>
<path id="XMLID_100_" class="st0" d="M323.5,22.7c0.3-1.4,0.6-2.7,0.9-4.1c2.3-9.2,9-14.8,18.4-15.3c2.5-0.2,5.1,0,7.6,0.4
	c6.2,1.1,10.5,4.8,13,10.5c2.1,4.9,2.7,10.2,2.7,15.7c-10.3,0-20.4,0-30.7,0c0.3,4.2,1.4,7.8,5,9.9c3.4,2.1,7,1.9,10.4-0.2
	c0.8-0.5,1.6-1.3,2-2.1c0.5-1.1,1.1-1.4,2.3-1.4c3.4,0.1,6.8,0,10.5,0c-2.4,7.4-7,12.2-14.4,13.8c-5.2,1.2-10.3,0.8-15.3-1.1
	c-6.8-2.6-10.1-8-11.5-14.8c-0.3-1.4-0.5-2.7-0.8-4.1C323.5,27.6,323.5,25.2,323.5,22.7z M335.8,22.4c6.1,0,12.1,0,18,0
	c0.5-5.2-3.4-9.5-8.5-9.8C340.1,12.3,335.9,16.6,335.8,22.4z"/>
<path id="XMLID_97_" class="st0" d="M412,49.5c-3.4,0-6.7,0-10,0c-1,0-1.2-0.5-1.2-1.3c0-1.2,0-2.4,0-3.7c-0.4,0.2-0.5,0.2-0.6,0.3
	c-5.2,8.3-19.8,7.6-26.1-0.9c-3-4.1-4.5-8.6-5-13.6c-0.5-5.8-0.1-11.4,2.3-16.7c3.8-8.3,12.1-12.2,20.6-9.7c2.8,0.8,5.1,2.4,7.1,4.6
	c0.4,0.4,0.8,0.8,1.4,1.5c0-1,0.1-1.6,0.1-2.2c0-5.2,0-10.5,0-15.7c0-0.8,0.4-1.8,1-2.4c2.1-2.3,4.5-4.4,6.6-6.7
	c1.1-1.1,2.2-1.7,3.8-1.2C412,4.2,412,26.7,412,49.5z M401,27.6c0.2,0,0.3-0.1,0.5-0.1c-0.8-3.1-1.2-6.3-2.3-9.2
	c-1.3-3.4-4.3-4.9-7.9-5c-3.6,0-6.8,1-8.4,4.5c-2.8,6.1-3.1,12.4,0.3,18.4c3.6,6.4,11.8,6.4,15.7,0.2C400.5,33.7,401,30.7,401,27.6z
	"/>
<path id="XMLID_96_" class="st0" d="M478.8-18.3c1.6-0.4,2.7-0.1,3.8,1.1c2.2,2.4,4.5,4.5,6.7,6.9c0.6,0.6,1,1.7,1,2.6
	c0.1,9,0,17.9,0,26.9c0,0.6,0,1.2,0,1.9c0.1,0.1,0.3,0.1,0.4,0.2c0.4-0.4,0.8-0.9,1.2-1.3c4.1-4.8,8.2-9.6,12.3-14.3
	c0.6-0.6,1.6-1.1,2.5-1.1c4.1-0.1,8.2-0.1,12.7-0.1c-0.5,0.7-0.8,1.1-1.1,1.4c-4.1,4.6-8.2,9.2-12.4,13.7c-1,1-1.2,1.8-0.5,3.1
	c4.3,8.3,8.6,16.6,12.8,24.9c0.3,0.5,0.5,1,0.9,1.7c-0.6,0.1-1,0.2-1.4,0.2c-3.4,0-6.7,0-10.1,0c-1.2,0-1.7-0.3-2.3-1.4
	c-2.7-5.7-5.5-11.4-8.3-17.1c-0.3-0.6-0.6-1.1-0.7-1.3c-1.8,1.7-3.7,3.2-5.4,5c-0.4,0.4-0.6,1.3-0.6,1.9c-0.1,3.6,0,7.2,0,10.8
	c0,0.6,0,1.3,0,2c-3.9,0-7.7,0-11.6,0C478.8,26.8,478.8,4.3,478.8-18.3z"/>
<path id="XMLID_93_" class="st0" d="M684.2,30.1c-10.6,0-20.8,0-30.9,0c-0.5,7.8,6.6,13.3,13.6,10.4c1.5-0.6,2.6-2.1,3.9-3.3
	c0.4-0.3,0.7-0.9,1.1-0.9c3.7-0.1,7.4,0,11.4,0c-1.1,3.8-2.9,6.9-5.7,9.4c-5.1,4.5-11.2,5.4-17.6,4.7c-1.4-0.1-2.8-0.4-4.1-0.8
	c-6.4-1.6-10.6-5.6-12.7-11.8c-2.1-6.3-2.4-12.8-0.8-19.3c2.3-9.2,9.3-15,18.8-15.3c2.4-0.1,4.9,0,7.3,0.5
	c8.7,1.8,12.9,7.9,14.6,16.1C683.6,23.1,683.7,26.5,684.2,30.1z M671.6,22.4c0.1-5.7-3.7-9.8-9-9.8c-5,0-9.1,4.3-9,9.8
	C659.6,22.4,665.6,22.4,671.6,22.4z"/>
<path id="XMLID_90_" class="st0" d="M458.5,30c-10.4,0-20.5,0-30.8,0c0.2,4.1,1.3,7.6,4.8,9.8c3.4,2.2,7.1,2,10.6-0.1
	c0.8-0.5,1.6-1.3,2-2.1c0.5-1.1,1.2-1.4,2.3-1.4c3.4,0.1,6.7,0,10.4,0c-0.2,0.8-0.4,1.4-0.6,1.9c-3.1,7.6-8.8,11.7-16.8,12.4
	c-2.9,0.2-5.9-0.1-8.8-0.6c-7.3-1.4-12-5.8-14.1-12.9c-1.8-6-2-12-0.7-18.1c2.1-9.4,9.2-15.3,18.9-15.6c2.4-0.1,4.9,0,7.3,0.5
	c6.2,1.2,10.4,4.8,12.9,10.6C458,19.3,458.4,24.5,458.5,30z M446.3,22.4c-0.1-6.1-4.2-10.1-9.6-9.8c-4.6,0.3-8.7,4.7-8.4,9.8
	C434.3,22.4,440.2,22.4,446.3,22.4z"/>
<path id="XMLID_87_" class="st0" d="M547.4,26.7c0.6-3.1,0.7-6.4,1.7-9.4c2.7-8.2,9.9-13.7,18.6-14c3.4-0.1,6.9,0,10.2,0.9
	c8.9,2.4,14.6,10.1,15.2,19.8c0.2,4.1,0.1,8.1-1.3,12.1c-2.9,8.6-10.1,14.2-19.2,14.5c-3.1,0.1-6.3-0.1-9.3-0.9
	c-8.9-2.3-14.8-9.7-15.5-19.1C547.6,29.3,547.5,28,547.4,26.7C547.3,26.7,547.5,26.7,547.4,26.7z M581.7,27c-0.6-2.8-1-5.7-2-8.3
	c-1.5-3.9-4.9-5.4-8.9-5.5c-4.2-0.1-7.8,1.2-9.6,5.3c-2.4,5.6-2.4,11.4,0,16.9c1.7,4,5.3,5.3,9.4,5.2c4.1-0.1,7.5-1.5,9.1-5.5
	C580.7,32.6,581,29.9,581.7,27z"/>
<path id="XMLID_86_" class="st0" d="M608.8,49.4c-4,0-7.7,0-11.6,0c0-0.6-0.1-1.3-0.1-1.9c0-13.7,0-27.5,0-41.2c0-1.6,0.4-2.1,2.1-2
	c3,0.1,6,0,9.2,0c0,2.1,0,3.9,0,5.9c0.3-0.1,0.4-0.1,0.5-0.2c4.7-6.4,12.3-8.7,19.8-6c5.5,2,8.3,6.3,8.7,12
	c0.3,5.4,0.2,10.9,0.2,16.4c0,5,0,10,0,15c0,0.6-0.1,1.2-0.1,1.9c-3.9,0-7.7,0-11.6,0c0-0.8,0-1.5,0-2.2c0-8,0-15.9,0-23.9
	c0-2-0.2-3.9-0.6-5.9c-0.3-1.8-1.5-3-3.2-3.6c-6.6-2.4-12.6,1-12.9,7.9c-0.4,8.4-0.2,16.7-0.2,25.1
	C608.8,47.6,608.8,48.4,608.8,49.4z"/>
<path id="XMLID_85_" class="st0" d="M473.9-18.3c0,22.5,0,45,0,67.8c-3.6,0-7.2,0-10.7,0c-0.3,0-0.7-0.5-0.9-0.9
	c-0.2-0.3,0-0.8,0-1.2c0-18.2,0-36.4,0-54.6c0-1.3,0.3-2.3,1.3-3.2c2.3-2.2,4.5-4.5,6.8-6.8C471.6-18.7,471.6-18.7,473.9-18.3z"/>
<path id="XMLID_84_" class="st0" d="M522.3,4.5c3.6,0,7.2,0,10.9,0c0,1.6,0,3.1,0,4.6c3.8-4.9,8.7-6.4,14.7-5.8c0,3.9,0,7.9,0,11.9
	c-1.7,0-3.4-0.2-5,0c-5.9,0.8-8.8,4-8.8,9.9c-0.1,7.4,0,14.8,0,22.2c0,0.6,0,1.3,0,2c-3.9,0-7.7,0-11.6,0
	C522.3,34.4,522.3,19.5,522.3,4.5z"/>
</svg>
